<svg width="43" height="43" viewBox="0 0 43 43" fill="none" xmlns="http://www.w3.org/2000/svg">
<path d="M30.9435 11.1508V0L8.04096 6.93358V8.13982L7.93622 8.1261V39.4335L35.064 42.9998V11.6926L30.9435 11.1508ZM25.9238 6.76459V10.4911L17.3415 9.3628L25.9238 6.76459ZM27.1802 26.9804C26.2258 28.4316 21.2273 31.8825 21.2273 31.8825C21.2273 31.8825 16.2099 28.419 15.262 26.9804C14.7875 26.2602 14.4505 25.4653 14.5064 24.4205C14.6054 22.571 16.1175 21.044 17.9695 21.044C19.8733 21.044 20.982 23.0754 21.2213 23.0754C21.4945 23.0754 22.6507 21.044 24.4731 21.044C26.3248 21.044 27.8369 22.5712 27.936 24.4205C27.9917 25.4653 27.6561 26.257 27.1802 26.9804Z" fill="#04805E"/>
</svg>
